<?xml version="1.0" standalone="no"?>
<!DOCTYPE svg PUBLIC "-//W3C//DTD SVG 20010904//EN"
 "http://www.w3.org/TR/2001/REC-SVG-20010904/DTD/svg10.dtd">
<svg version="1.0" xmlns="http://www.w3.org/2000/svg"
 width="755.000000pt" height="557.000000pt" viewBox="0 0 755.000000 557.000000"
 preserveAspectRatio="xMidYMid meet">

<g transform="translate(0.000000,557.000000) scale(0.100000,-0.100000)"
fill="#000000" stroke="none">
<path d="M0 2785 l0 -2785 705 0 705 0 0 30 c0 17 5 30 10 30 6 0 10 -13 10
-30 l0 -30 490 0 490 0 1 123 c1 253 -2 880 -6 1082 -4 220 1 280 25 280 8 1
40 10 70 22 30 11 96 29 145 39 50 9 113 27 140 39 28 12 62 27 77 33 16 7 33
26 42 47 8 19 18 35 22 35 4 0 21 -15 38 -34 25 -28 40 -35 81 -39 48 -5 51
-3 86 34 34 37 42 40 92 42 60 2 63 1 69 -27 2 -15 -5 -21 -29 -28 -21 -6 -33
-15 -33 -26 0 -10 -7 -27 -15 -39 -14 -21 -86 -63 -106 -63 -6 0 -23 -8 -37
-19 -15 -10 -37 -21 -49 -25 -12 -4 -65 -50 -117 -102 -66 -65 -102 -94 -119
-94 -13 0 -50 -13 -82 -30 -32 -16 -67 -30 -76 -30 -10 0 -32 -13 -48 -29 -16
-16 -44 -32 -60 -36 -17 -4 -31 -13 -31 -21 0 -33 26 -95 42 -100 9 -3 20 -15
24 -27 14 -45 44 -77 73 -77 43 0 59 24 38 60 -21 34 -22 51 -3 44 7 -3 16 2
19 10 4 10 18 16 37 16 28 0 30 -3 31 -37 l1 -38 8 31 c7 32 65 93 88 94 7 0
48 18 91 40 43 22 82 40 87 40 6 0 19 8 30 18 10 10 26 21 35 24 9 4 19 20 22
38 4 17 20 45 36 61 26 25 37 29 86 29 42 0 70 7 115 30 93 47 120 36 88 -35
-10 -22 -9 -28 3 -36 28 -18 49 -9 63 26 10 24 22 35 35 35 25 0 29 41 6 60
-20 17 -19 46 3 62 9 7 26 27 37 43 17 27 20 28 23 10 9 -45 59 -64 69 -25 8
30 41 36 64 11 26 -27 31 -27 57 9 12 16 28 27 36 24 7 -3 26 9 42 25 23 25
37 31 69 31 23 0 53 9 70 20 60 40 88 23 101 -61 11 -71 18 -79 74 -79 44 0
50 -3 50 -21 0 -26 -47 -129 -65 -143 -8 -6 -17 -24 -21 -41 -6 -30 -6 -30 10
-7 22 29 32 28 64 -8 l28 -30 52 28 c43 23 59 39 86 88 25 44 44 65 78 84 73
40 79 48 72 89 -10 64 28 161 63 161 18 0 24 16 17 44 -7 28 -46 45 -147 66
l-58 12 3 46 3 47 40 -2 c84 -5 121 -10 136 -17 10 -4 20 -3 24 3 3 6 28 11
56 11 34 0 65 8 99 26 60 31 62 35 71 99 6 42 3 57 -19 97 -23 44 -67 86 -78
75 -3 -2 0 -16 6 -31 12 -33 -1 -40 -74 -39 -28 1 -79 1 -113 1 -37 1 -63 5
-63 11 0 6 -9 11 -20 11 -16 0 -20 -7 -20 -35 0 -52 -5 -50 -121 43 -23 17
-44 32 -47 33 -22 3 -102 4 -93 1 6 -2 11 -14 11 -27 0 -32 17 -42 89 -50 49
-6 69 -13 86 -31 12 -13 34 -24 48 -24 28 0 87 -44 87 -65 0 -22 -64 -39 -90
-23 -18 11 -23 11 -31 -4 -15 -27 -34 -22 -144 36 l-100 53 2 46 c3 47 3 47
-30 47 -47 0 -107 11 -107 20 0 4 11 11 25 14 18 5 25 13 25 32 0 29 20 40 48
25 16 -8 21 -6 31 15 17 37 15 40 -36 52 -27 6 -69 20 -95 32 -38 16 -48 26
-48 44 0 18 8 27 30 35 32 10 39 36 21 70 -6 11 -6 55 0 116 10 110 -1 146
-22 74 -7 -24 -19 -49 -26 -54 -9 -7 -14 -39 -16 -96 -1 -55 -7 -92 -16 -102
-7 -9 -10 -24 -7 -33 9 -23 -20 -64 -45 -64 -11 0 -22 7 -25 15 -4 8 -12 15
-19 15 -7 0 -16 7 -19 16 -5 13 -10 12 -36 -9 -24 -21 -35 -24 -58 -18 -37 11
-89 38 -97 51 -11 17 -30 11 -41 -14 -8 -18 -8 -30 3 -50 18 -34 10 -60 -27
-86 -46 -32 -77 -10 -133 93 -80 148 -99 203 -103 295 -5 95 -15 122 -48 122
-20 0 -24 6 -29 43 -3 23 -2 43 3 45 6 2 20 12 32 22 18 14 20 21 11 30 -9 10
-17 9 -34 -4 -13 -9 -33 -16 -44 -16 -11 0 -26 -9 -33 -20 -7 -11 -21 -20 -32
-20 -22 0 -26 10 -9 27 6 6 16 21 23 33 6 13 29 30 51 38 22 9 44 21 48 29 4
7 14 13 21 13 17 0 46 33 46 52 0 36 -51 127 -90 161 -95 81 -177 49 -254
-100 -9 -18 -16 -48 -16 -68 0 -21 -7 -42 -19 -54 -40 -40 -43 -58 -14 -79 17
-13 24 -25 20 -36 -8 -20 -27 -21 -27 -1 0 17 -16 20 -25 5 -3 -5 -12 -10 -20
-10 -8 0 -26 -12 -40 -26 -19 -19 -31 -23 -48 -18 -29 9 -39 24 -32 49 16 55
17 94 3 114 -14 20 -15 20 -35 -7 -11 -15 -32 -51 -47 -80 -23 -45 -30 -52
-56 -52 -23 0 -30 -4 -30 -20 0 -13 -7 -20 -19 -20 -11 0 -23 -4 -26 -10 -4
-6 6 -10 22 -10 49 0 57 -11 45 -67 -6 -27 -9 -58 -8 -68 5 -32 -12 -57 -35
-50 -12 4 -19 2 -19 -7 -1 -7 -5 -44 -10 -83 -8 -65 -7 -75 21 -145 16 -41 29
-83 29 -92 0 -29 12 -48 29 -48 18 0 71 -112 71 -150 0 -13 7 -20 19 -20 11 0
41 -11 68 -24 26 -13 68 -27 93 -31 60 -10 102 -32 98 -52 -4 -20 -101 -62
-145 -63 -25 0 -38 -8 -59 -35 -14 -19 -35 -35 -45 -35 -10 0 -35 -10 -56 -21
-93 -53 -130 -67 -199 -72 -47 -4 -75 -2 -83 6 -6 6 -11 40 -11 77 0 36 -3 89
-6 118 -6 49 -8 52 -33 50 -25 -3 -26 -1 -26 44 0 26 -4 48 -10 48 -5 0 -10
-25 -10 -55 0 -30 -6 -60 -12 -66 -11 -11 -13 -9 -13 7 0 12 -10 25 -25 32
-17 8 -25 20 -25 38 0 23 3 25 25 20 20 -5 25 -3 25 13 0 13 -9 21 -29 26 -19
4 -33 16 -41 35 -7 16 -21 32 -31 35 -10 4 -19 10 -19 15 0 4 -7 7 -16 6 -9 0
-19 5 -21 12 -3 6 2 12 11 12 21 0 20 29 -3 59 -15 20 -21 22 -39 12 -27 -15
-32 -14 -32 4 0 8 -9 15 -19 15 -11 0 -23 5 -26 10 -4 6 -11 8 -16 4 -6 -3
-13 3 -16 15 -6 23 -19 28 -26 9 -4 -10 -8 -9 -16 2 -16 22 -13 40 4 34 10 -4
15 0 15 14 0 32 21 38 40 12 11 -15 19 -19 24 -11 12 19 25 12 32 -15 5 -18
10 -22 18 -14 8 8 16 4 29 -12 18 -23 18 -21 13 81 -4 58 -8 107 -11 109 -2 3
-12 -1 -21 -9 -15 -12 -18 -12 -22 0 -2 7 -13 21 -23 29 -11 9 -19 21 -19 27
0 6 -9 16 -20 23 -17 10 -21 10 -26 -3 -11 -28 -34 -17 -34 18 0 23 3 28 10
17 7 -12 10 -11 15 5 4 11 10 27 15 37 12 22 -12 31 -36 13 -20 -14 -25 -9
-58 60 -10 22 -21 29 -41 30 -25 0 -29 5 -43 59 -13 53 -40 96 -60 96 -5 0
-19 -24 -33 -52 -22 -50 -57 -109 -78 -134 -5 -6 -12 -38 -16 -73 -5 -48 -4
-67 8 -85 12 -18 13 -26 4 -35 -6 -6 -12 -17 -13 -24 0 -7 -2 -21 -2 -31 -3
-26 -15 -12 -20 22 -3 27 -9 39 -15 31 -2 -2 -1 -31 2 -64 4 -39 9 -55 15 -47
6 11 12 9 27 -7 22 -23 25 -51 7 -69 -9 -9 -8 -24 1 -65 8 -37 9 -62 2 -80 -6
-14 -8 -48 -5 -74 7 -60 -17 -123 -46 -123 -17 0 -20 7 -20 44 0 39 -4 47 -42
78 -48 39 -83 49 -176 54 -35 1 -68 7 -75 12 -7 6 -29 7 -54 2 -24 -4 -43 -3
-43 1 0 12 -27 11 -32 0 -2 -6 -18 -6 -38 -2 l-35 7 36 7 c21 4 48 16 60 26
39 29 60 33 74 14 11 -15 14 -15 31 6 11 13 39 37 64 54 25 17 49 35 53 41 6
8 10 7 14 -1 7 -20 41 -15 64 8 12 12 33 21 48 21 39 0 46 11 44 73 -1 42 -6
60 -20 70 -15 12 -16 17 -6 34 9 15 10 28 2 48 -5 15 -9 57 -8 93 2 36 -2 74
-8 86 -14 25 2 103 25 121 11 9 13 23 8 54 -5 30 -2 48 9 65 30 47 -21 84
-112 82 -22 0 -45 2 -50 5 -5 3 -65 6 -133 6 -69 0 -146 1 -171 1 -30 1 -50
-5 -59 -15 -12 -15 -71 -21 -83 -8 -4 3 -2 12 4 19 7 9 7 18 -2 32 -28 44 24
68 136 60 36 -2 49 0 47 10 -3 19 12 14 26 -8 6 -11 18 -17 26 -14 8 3 29 -2
45 -12 28 -17 31 -17 49 -1 21 19 52 23 52 6 0 -7 10 -9 24 -5 14 3 36 2 49
-3 20 -8 29 -6 44 11 10 11 28 24 41 29 26 10 30 33 5 25 -29 -9 -44 6 -28 27
11 15 13 16 19 2 8 -22 26 -19 26 5 0 13 -7 20 -20 20 -27 0 -36 -3 -32 -12 3
-11 -4 -10 -43 6 -18 8 -36 11 -40 8 -4 -4 -5 7 -3 23 3 30 3 30 88 38 50 5
91 14 100 23 8 8 26 56 40 107 22 81 28 92 48 93 12 1 31 9 42 19 10 9 24 14
30 10 15 -9 70 43 70 67 0 19 -25 25 -35 8 -3 -5 -17 -10 -31 -10 -14 0 -27
-7 -30 -15 -4 -8 -16 -15 -28 -15 -12 0 -27 -5 -33 -11 -9 -9 -82 -14 -145
-10 -26 2 -22 16 7 29 16 8 26 8 31 1 4 -6 10 -4 17 5 9 12 21 13 47 8 42 -10
84 -2 88 16 2 10 -8 13 -37 11 -22 -2 -43 0 -47 3 -3 4 -13 4 -21 1 -9 -4 -22
1 -29 12 -19 26 -2 51 41 59 36 7 48 25 18 28 -47 4 -71 8 -108 17 -22 6 -56
11 -76 11 -33 0 -79 29 -79 49 0 24 83 76 134 84 35 6 76 31 76 47 0 3 -21 6
-47 6 -41 -1 -48 2 -51 19 -3 26 77 77 100 64 11 -6 18 -4 22 7 10 25 26 5 26
-32 0 -24 5 -34 15 -34 9 0 15 9 15 21 0 17 3 19 14 10 11 -9 17 -8 29 4 11
10 18 12 23 4 4 -8 9 -7 15 2 6 10 9 8 9 -8 0 -33 11 -53 27 -53 12 0 14 9 8
47 -6 41 -26 72 -46 73 -3 0 -6 26 -7 58 -1 71 -19 271 -30 334 -8 43 -6 49
15 68 12 11 23 24 23 29 0 13 55 24 79 16 10 -3 26 -21 35 -40 14 -29 15 -56
8 -197 -5 -90 -7 -168 -5 -174 3 -7 14 -14 26 -17 12 -2 29 -8 38 -11 13 -6
16 -2 12 17 -3 14 0 28 6 31 19 12 12 36 -11 36 -14 0 -19 3 -12 10 14 14 54
0 54 -20 0 -15 23 -33 39 -31 3 1 5 16 5 34 1 26 6 33 24 35 13 2 26 11 29 20
9 23 26 33 34 20 4 -6 12 -8 18 -4 8 5 7 12 -1 25 -6 10 -8 26 -5 35 7 18 42
22 52 6 5 -8 11 -8 19 -1 18 15 116 25 116 12 0 -5 13 -8 30 -6 22 3 33 -1 40
-16 16 -29 30 -13 23 24 -6 32 -6 32 15 13 15 -13 30 -17 50 -13 16 3 34 1 41
-6 8 -8 14 -8 22 0 6 6 19 9 28 7 9 -3 7 2 -6 12 -32 23 -29 39 8 40 44 2 109
25 109 40 0 33 60 20 60 -14 1 -10 8 -2 18 18 15 30 22 35 52 35 30 0 37 5 51
35 13 26 23 35 43 36 19 1 24 -2 17 -9 -22 -22 -10 -30 12 -9 13 12 27 19 31
15 4 -5 14 1 22 11 10 14 17 16 26 9 9 -7 21 -7 38 -1 27 11 59 16 135 20 28
2 53 7 56 11 3 5 34 11 68 14 33 3 61 10 61 14 0 5 6 9 14 9 8 0 16 8 19 18 4
19 10 9 21 -38 11 -49 18 -52 132 -57 60 -3 120 -1 134 5 24 9 24 10 -22 31
-26 11 -56 21 -67 21 -25 0 -38 20 -20 31 8 5 97 9 199 9 102 0 212 5 245 10
33 6 76 12 95 14 219 24 213 34 -20 34 -100 0 -183 2 -186 4 -2 3 14 8 37 12
23 4 47 10 53 14 16 10 139 32 226 40 41 4 80 10 86 14 7 5 29 10 51 13 21 3
66 14 100 25 33 11 157 36 274 56 205 35 218 36 304 25 50 -7 119 -22 154 -33
56 -18 72 -19 130 -10 90 15 333 34 406 32 71 -2 140 13 113 25 -35 14 -20 35
25 35 l42 0 13 53 c6 29 12 65 12 80 l0 27 -162 2 c-155 3 -163 4 -163 23 0
18 11 21 130 32 372 33 425 36 514 24 102 -14 131 -21 131 -30 -1 -13 -74 -52
-94 -50 -43 3 -76 -1 -76 -10 0 -6 42 -9 96 -8 l96 2 20 -50 20 -50 -21 -14
c-29 -19 -26 -31 9 -31 33 0 36 7 44 94 5 60 27 86 56 68 18 -11 20 -10 20 9
0 19 4 20 43 14 23 -4 75 -9 116 -11 41 -2 81 -6 90 -9 9 -4 59 -9 111 -11 52
-3 108 -9 123 -14 42 -14 153 -24 174 -16 15 6 13 10 -16 22 -18 8 -47 14 -63
14 -34 0 -34 19 0 31 15 6 22 5 22 -3 0 -7 6 -4 13 6 19 26 106 14 138 -20 23
-25 49 -32 49 -13 0 7 11 8 29 4 18 -4 32 -2 36 5 5 8 12 5 22 -9 8 -12 20
-21 27 -21 20 0 27 -27 10 -34 -22 -8 -54 -7 -54 2 0 4 -12 13 -28 20 -23 11
-29 10 -39 -4 -8 -11 -21 -15 -38 -11 -36 6 -20 -6 33 -26 23 -10 65 -17 92
-17 27 0 52 -4 55 -10 3 -5 17 -10 30 -10 14 0 26 -7 29 -17 7 -27 12 -650 5
-657 -4 -4 -19 -2 -35 5 -16 6 -38 15 -49 19 -11 5 -35 11 -53 14 -33 6 -33 6
-27 -27 4 -17 13 -43 21 -57 7 -14 18 -37 25 -52 7 -19 18 -28 33 -28 13 0 37
-7 54 -15 26 -13 32 -24 38 -61 3 -25 2 -64 -3 -87 -9 -43 -14 -46 -59 -32
-19 6 -21 3 -17 -19 5 -22 11 -26 39 -26 l34 0 2 -187 c5 -341 3 -538 -4 -555
-5 -13 -13 -15 -45 -8 -46 11 -83 50 -102 107 -14 41 -13 45 13 93 32 59 28
82 -16 105 -39 19 -52 19 -68 0 -7 -9 -21 -13 -35 -9 -18 4 -25 -1 -39 -31
-23 -48 -39 -52 -100 -26 -28 13 -71 29 -96 36 -51 14 -244 87 -307 116 -23
10 -45 19 -50 19 -4 0 -27 7 -50 16 -68 26 -69 25 112 200 94 91 95 93 106
195 5 52 19 154 31 227 19 122 19 166 -1 133 -5 -7 -12 -45 -16 -85 -19 -202
-62 -390 -96 -416 -61 -48 -79 -66 -79 -75 0 -18 -138 -135 -159 -135 -12 0
-94 27 -136 45 -16 7 -61 25 -100 40 -144 56 -171 67 -195 83 -14 9 -36 18
-50 20 -39 5 -114 31 -138 48 -15 10 -22 25 -22 49 0 43 -27 59 -82 52 -34 -5
-40 -2 -47 16 -4 12 -6 41 -3 65 3 35 0 47 -16 63 -27 24 -44 24 -96 -2 -84
-43 -98 -49 -111 -49 -7 0 -18 -7 -25 -15 -7 -8 -21 -15 -32 -15 -10 0 -16 -5
-13 -10 3 -6 -2 -13 -12 -17 -10 -4 -23 -13 -29 -21 -12 -17 -34 -8 -34 14 0
8 -9 14 -20 14 -11 0 -20 -3 -20 -7 1 -16 39 -53 54 -53 8 0 18 -4 21 -10 3
-5 20 -17 38 -25 83 -40 106 -82 107 -189 0 -65 -18 -49 -22 19 -3 42 -6 50
-23 50 -12 0 -25 11 -33 28 -14 28 -68 68 -133 98 -47 22 -57 38 -34 56 15 10
16 13 3 13 -8 0 -27 -9 -40 -20 -22 -17 -37 -19 -109 -15 -81 5 -83 5 -44 -8
27 -10 35 -16 25 -20 -14 -6 -394 -20 -835 -32 -93 -3 -273 -9 -400 -15 -277
-11 -533 -18 -1005 -26 -195 -3 -429 -9 -520 -15 -91 -5 -256 -9 -367 -9 -156
0 -203 -3 -203 -12 0 -7 11 -47 24 -88 14 -44 22 -88 19 -107 -6 -39 6 -43
102 -38 39 2 192 4 340 5 149 0 378 7 510 15 132 8 251 15 265 14 41 -1 492
21 675 32 350 23 1100 45 1108 32 3 -4 -1 -23 -9 -42 -13 -31 -17 -33 -48 -28
-25 4 -39 1 -50 -12 -20 -22 -20 -31 -2 -31 7 0 26 -10 42 -22 15 -12 34 -23
42 -24 21 -4 23 -8 25 -55 l2 -44 -67 -22 c-37 -13 -81 -24 -99 -25 -29 -3
-33 1 -48 41 l-16 43 -45 -5 c-47 -6 -193 -49 -245 -73 -127 -58 -253 -100
-285 -97 -27 4 -40 0 -54 -16 -11 -12 -14 -21 -9 -21 20 0 42 -205 24 -223 -6
-6 -11 -18 -11 -26 0 -8 -7 -22 -16 -32 -13 -15 -14 -21 0 -52 l14 -36 44 14
c98 30 168 57 253 99 49 24 93 42 97 40 4 -3 8 -27 8 -54 0 -53 8 -60 65 -60
38 0 45 -8 65 -83 11 -42 11 -50 -3 -64 -14 -14 -26 -14 -130 1 -108 15 -118
15 -181 -1 -36 -10 -66 -21 -66 -26 0 -5 10 -5 23 0 33 12 215 5 273 -10 45
-12 62 -11 130 4 102 21 145 38 235 89 41 24 124 71 184 105 126 71 307 186
418 265 63 45 80 64 97 104 11 27 20 63 20 80 0 17 5 38 10 46 8 12 10 9 10
-12 0 -15 4 -29 8 -32 5 -3 36 8 70 24 42 20 66 38 77 59 10 20 24 31 38 32
17 1 15 3 -8 8 -28 6 -30 9 -33 59 -3 46 -1 52 16 52 25 0 91 -28 109 -46 8
-8 26 -14 41 -14 15 0 77 -18 137 -39 149 -53 162 -58 170 -71 3 -5 10 -8 15
-5 5 3 24 -2 42 -11 18 -10 53 -22 78 -29 67 -17 64 -39 -11 -105 -81 -71 -89
-80 -89 -91 0 -22 28 -4 105 66 94 85 107 88 185 51 28 -14 64 -27 80 -31 52
-12 55 -27 21 -109 -17 -41 -31 -82 -31 -90 0 -8 -8 -20 -18 -25 -18 -10 -58
-1 -212 44 -30 9 -71 20 -90 25 -45 10 -98 29 -130 46 -24 12 -25 17 -26 101
0 49 -4 94 -8 101 -10 17 -30 15 -48 -5 -15 -18 -91 -156 -100 -184 -4 -11 -8
-11 -19 -2 -15 12 -81 11 -114 -2 -11 -5 -26 -17 -33 -27 -7 -10 -23 -18 -35
-18 -12 0 -35 -7 -51 -15 -39 -20 -69 -19 -91 5 -22 24 -58 26 -76 4 -7 -8
-21 -13 -31 -11 -13 4 -17 -1 -17 -16 0 -12 -10 -51 -23 -86 -25 -70 -34 -78
-183 -170 -72 -45 -125 -88 -125 -103 0 -5 16 -16 35 -25 47 -23 45 -50 -7
-88 -43 -32 -65 -45 -111 -66 -35 -16 -53 -47 -38 -62 6 -6 11 -21 11 -34 0
-13 12 -46 26 -74 14 -28 24 -60 22 -72 -3 -20 -8 -22 -60 -19 -57 2 -57 2
-47 -20 7 -15 54 -44 133 -83 l121 -61 0 -79 0 -80 35 -3 c36 -2 48 3 120 53
l43 29 47 -26 c26 -15 65 -30 86 -34 35 -6 55 -15 120 -53 11 -6 30 -16 44
-21 54 -22 85 -47 82 -66 -2 -10 -20 -48 -41 -84 -27 -48 -51 -74 -89 -100
-50 -33 -106 -104 -152 -191 -19 -36 -19 -37 0 -74 25 -49 172 -217 216 -247
19 -13 34 -28 34 -34 0 -11 -37 -63 -97 -138 -12 -15 -31 -29 -43 -31 -12 -2
-44 -25 -71 -50 -54 -51 -69 -55 -93 -23 -17 23 -17 23 -12 -13 2 -20 0 -41
-6 -47 -12 -12 -66 -5 -87 12 -11 9 -12 5 -7 -19 6 -27 3 -32 -24 -42 -40 -15
-46 -36 -27 -97 9 -28 23 -85 31 -126 8 -41 26 -120 40 -175 14 -55 26 -109
26 -120 0 -12 4 -25 9 -30 14 -14 63 -211 60 -238 -2 -12 2 -31 8 -42 6 -11
16 -44 24 -72 l13 -53 1008 0 1008 0 0 2785 0 2785 -516 0 -515 0 6 -22 c14
-48 58 -130 97 -179 22 -28 37 -56 35 -63 -7 -17 -60 -31 -65 -18 -2 6 -16 6
-37 -1 -41 -12 -58 -1 -30 20 12 9 32 13 53 9 17 -2 32 0 32 5 0 13 -21 49
-46 79 -18 21 -46 84 -68 153 -5 15 -21 17 -143 17 -123 -1 -135 -2 -113 -15
43 -24 45 -23 -437 -41 -97 -3 -163 -2 -163 4 0 5 19 9 43 10 23 1 80 9 127
17 47 8 96 16 110 18 14 3 -996 5 -2243 6 l-2268 1 6 -57 c10 -87 13 -93 46
-93 35 0 36 -6 8 -36 -12 -13 -24 -37 -28 -55 -8 -40 5 -223 19 -263 5 -16 10
-77 10 -135 0 -145 9 -211 29 -218 9 -3 23 -15 32 -26 13 -16 19 -17 37 -8 12
7 22 18 22 25 0 25 41 66 65 66 13 0 27 5 30 11 8 13 158 82 318 148 15 6 39
11 52 11 13 0 27 5 31 11 9 16 85 49 112 49 27 0 29 -23 5 -50 -22 -23 -140
-90 -159 -90 -8 0 -22 -4 -32 -9 -9 -4 -46 -22 -82 -40 -36 -18 -82 -42 -104
-53 -21 -12 -54 -22 -72 -22 -19 -1 -39 -7 -46 -14 -7 -7 -23 -12 -36 -12 -17
0 -27 -9 -39 -37 -14 -35 -14 -43 1 -104 10 -40 14 -81 11 -105 -6 -35 -1 -98
21 -281 6 -43 4 -53 -8 -53 -20 0 -36 40 -28 70 9 36 -8 184 -31 261 -23 79
-25 137 -4 145 11 5 12 8 2 18 -18 18 -67 26 -94 15 -28 -10 -69 11 -78 42 -4
10 -12 19 -19 19 -8 0 -16 17 -20 38 -9 55 -15 60 -85 71 -35 6 -66 13 -69 16
-3 3 -9 29 -13 58 -5 28 -12 75 -16 102 -6 45 -8 47 -13 20 -3 -18 -13 39 -24
145 -23 232 -23 225 -8 222 9 -2 11 10 7 45 -3 27 -6 57 -6 68 0 11 -3 35 -5
53 l-5 32 -574 0 -575 0 0 -2785z m1150 2732 c0 -20 -25 1 -28 24 -2 23 -2 23
13 5 8 -11 15 -24 15 -29z m4480 3 c0 -5 -4 -10 -10 -10 -5 0 -10 5 -10 10 0
6 5 10 10 10 6 0 10 -4 10 -10z m-4106 -95 c-4 -8 -7 -15 -9 -15 -2 0 -5 7 -9
15 -3 9 0 15 9 15 9 0 12 -6 9 -15z m-406 -95 l-1 -45 -8 45 c-4 25 -7 59 -7
75 l0 30 8 -30 c4 -16 8 -50 8 -75z m5276 -8 c13 -21 -13 -35 -54 -29 -47 6
-55 11 -45 26 7 13 91 15 99 3z m444 -28 c18 -8 32 -20 32 -25 0 -12 -5 -11
-43 4 -18 8 -38 12 -44 10 -7 -3 -13 0 -13 5 0 9 14 19 31 21 3 1 20 -6 37
-15z m135 -47 c-7 -11 -23 2 -23 19 0 12 2 12 14 2 8 -7 12 -16 9 -21z m92 13
c9 -15 -43 -36 -56 -23 -6 6 -8 16 -5 22 9 14 53 14 61 1z m455 -92 c0 -16 -3
-19 -11 -11 -6 6 -8 16 -5 22 11 17 16 13 16 -11z m-30 2 c0 -5 -5 -10 -11
-10 -5 0 -7 5 -4 10 3 6 8 10 11 10 2 0 4 -4 4 -10z m-5777 -36 c9 -9 -4 -35
-14 -28 -5 3 -9 12 -9 20 0 14 12 19 23 8z m3512 -113 c9 -15 -12 -22 -40 -15
-20 5 -23 9 -13 15 17 12 45 11 53 0z m-3670 -483 c3 -13 1 -36 -4 -53 l-8
-30 -12 28 c-16 40 -14 77 4 77 8 0 17 -10 20 -22z m885 -74 c0 -18 -8 -18
-26 1 -19 19 -8 41 12 24 8 -6 14 -18 14 -25z m-1035 -444 c3 -5 1 -10 -4 -10
-6 0 -11 5 -11 10 0 6 2 10 4 10 3 0 8 -4 11 -10z m-665 -66 c0 -8 -4 -14 -9
-14 -11 0 -22 26 -14 34 9 9 23 -3 23 -20z m460 -91 c19 -24 21 -36 15 -86 -3
-35 -2 -72 5 -92 9 -28 8 -38 -6 -59 -20 -31 -33 -32 -66 -7 -18 14 -28 37
-38 88 -7 37 -19 82 -26 100 -16 38 -11 57 19 71 40 19 74 14 97 -15z m3912 4
c16 -16 23 -34 22 -57 -1 -29 -5 -35 -25 -38 -14 -2 -38 2 -54 8 l-30 11 38
22 c43 24 47 37 12 37 -14 0 -25 -4 -25 -10 0 -5 -4 -10 -10 -10 -15 0 -12 21
7 42 21 24 37 23 65 -5z m228 -1 c0 -8 -4 -17 -9 -21 -12 -7 -24 12 -16 25 9
15 25 12 25 -4z m-3820 -126 c0 -5 -2 -10 -4 -10 -3 0 -8 5 -11 10 -3 6 -1 10
4 10 6 0 11 -4 11 -10z m-288 -170 c15 -24 22 -25 42 -4 15 14 17 14 22 0 9
-23 -37 -60 -51 -42 -17 22 -35 6 -35 -30 0 -28 -4 -34 -21 -34 -15 0 -19 4
-14 19 5 16 11 62 14 104 2 15 31 6 43 -13z m132 -6 c10 -27 7 -114 -5 -114
-28 0 -69 35 -69 60 1 22 2 23 11 7 14 -24 29 -12 29 22 0 41 22 57 34 25z
m5387 0 c7 -9 27 -49 44 -88 34 -77 62 -100 123 -99 22 1 36 -5 42 -18 13 -23
-13 -39 -64 -39 -42 0 -49 -14 -8 -17 106 -8 148 -7 154 1 3 5 13 2 23 -7 9
-10 21 -17 26 -17 5 0 9 -13 9 -29 0 -16 6 -31 15 -35 8 -3 15 -12 15 -20 0
-8 8 -17 19 -21 13 -4 17 -12 13 -30 -5 -27 -21 -27 -85 -3 -21 8 -39 7 -70
-2 -29 -9 -114 -13 -270 -14 -217 -1 -229 0 -247 19 -13 13 -16 25 -11 34 11
17 107 10 161 -12 24 -9 63 -12 123 -9 81 4 88 6 93 27 7 27 -16 76 -57 123
-19 22 -29 44 -29 66 0 18 -13 57 -30 87 -16 30 -30 66 -30 80 0 41 18 51 41
23z m-5631 -13 c0 -20 -32 -34 -56 -24 -19 7 -18 20 4 32 28 17 52 13 52 -8z
m4022 -106 c0 -5 -5 -11 -11 -13 -6 -2 -11 4 -11 13 0 9 5 15 11 13 6 -2 11
-8 11 -13z m175 -11 c-3 -4 -14 -3 -24 0 -15 6 -15 8 -3 16 16 10 39 -4 27
-16z m-3999 -95 c-2 -6 -8 -10 -13 -10 -5 0 -11 4 -13 10 -2 6 4 11 13 11 9 0
15 -5 13 -11z m-168 -41 c0 -19 -2 -20 -10 -8 -13 19 -13 30 0 30 6 0 10 -10
10 -22z m4700 -33 c17 -20 -5 -65 -31 -65 -46 0 -60 21 -39 61 13 23 52 25 70
4z m-5022 -26 c46 -16 69 -89 27 -89 -26 0 -74 35 -80 57 -7 30 -20 29 -65 -7
-39 -31 -64 -37 -89 -21 -24 16 4 45 56 57 64 15 113 16 151 3z m6392 -30 c0
-15 -4 -19 -16 -15 -9 3 -18 6 -20 6 -2 0 -4 7 -4 15 0 8 9 15 20 15 14 0 20
-7 20 -21z m173 -66 c-7 -2 -19 -2 -25 0 -7 3 -2 5 12 5 14 0 19 -2 13 -5z
m-936 -18 c7 -20 -2 -29 -21 -22 -9 4 -13 13 -10 22 8 19 23 19 31 0z m-5687
-15 c0 -5 8 -10 18 -10 19 0 56 -53 45 -64 -12 -12 -24 -6 -33 20 -6 14 -19
28 -30 31 -20 5 -29 33 -10 33 6 0 10 -4 10 -10z m-30 -10 c0 -5 -12 -10 -27
-9 l-28 1 25 8 c14 4 26 8 28 9 1 1 2 -3 2 -9z m188 -29 c-6 -16 -8 -70 -3
-143 5 -98 4 -118 -8 -118 -7 0 -19 -12 -25 -26 -25 -54 -33 -15 -25 124 4 76
7 149 7 164 -1 28 15 38 48 30 14 -3 15 -9 6 -31z m5492 -17 c0 -22 -4 -26
-22 -21 -13 2 -31 8 -40 12 -15 6 -18 2 -18 -24 0 -33 -14 -42 -24 -15 -18 48
5 72 72 73 28 1 32 -2 32 -25z m-5010 -85 c0 -33 -4 -58 -9 -55 -11 7 -23 80
-15 100 13 34 24 13 24 -45z m6115 51 c3 -5 1 -10 -4 -10 -6 0 -11 5 -11 10 0
6 2 10 4 10 3 0 8 -4 11 -10z m-6435 -9 c0 -17 -18 -21 -24 -6 -3 9 0 15 9 15
8 0 15 -4 15 -9z m230 -22 c0 -11 -4 -17 -10 -14 -5 3 -10 13 -10 21 0 8 5 14
10 14 6 0 10 -9 10 -21z m5069 -136 c25 -77 24 -121 -1 -63 -27 61 -40 104
-45 140 -4 32 -4 34 9 15 8 -11 25 -52 37 -92z m-5267 65 c-9 -9 -12 -7 -12
12 0 19 3 21 12 12 9 -9 9 -15 0 -24z m6222 7 c-9 -14 -22 -49 -29 -78 -7 -29
-16 -60 -20 -69 -5 -13 -2 -18 11 -18 41 0 47 -13 34 -73 l-11 -55 -56 -7
c-78 -10 -87 4 -38 55 40 40 43 60 7 41 -51 -27 -59 10 -9 39 27 16 37 31 50
78 16 57 49 112 68 112 5 0 2 -11 -7 -25z m-1019 -86 c1 -106 4 -103 -88 -121
-252 -51 -269 -50 -181 15 33 23 73 52 90 62 17 11 60 42 94 68 35 26 68 46
74 44 6 -2 11 -31 11 -68z m782 -41 c7 -6 10 -15 7 -20 -4 -6 8 -7 30 -3 47 9
47 -6 0 -92 -40 -70 -56 -83 -86 -64 -15 9 -23 9 -33 1 -8 -6 -24 -10 -37 -8
-44 6 -34 72 25 165 22 35 29 40 54 35 15 -2 34 -9 40 -14z m-3953 -73 c3 -9
0 -15 -9 -15 -9 0 -12 6 -9 15 4 8 7 15 9 15 2 0 5 -7 9 -15z m3542 -89 c-21
-32 -36 -31 -36 2 0 37 7 44 31 29 16 -10 17 -14 5 -31z m129 23 c21 -33 -48
-119 -96 -119 -22 0 -29 5 -29 20 0 11 4 20 9 20 5 0 15 16 21 35 6 19 19 39
28 45 23 13 59 13 67 -1z m-3669 -25 c-3 -9 -6 -21 -6 -27 0 -8 -3 -8 -11 0
-13 13 -5 43 12 43 6 0 8 -7 5 -16z m-1281 -33 c-15 -14 -47 -17 -52 -6 -4 14
39 33 52 23 6 -5 6 -11 0 -17z m1119 -37 c27 -26 19 -37 -20 -31 -45 8 -50 12
-34 32 16 19 34 19 54 -1z m3316 5 c0 -20 -91 -149 -113 -161 -12 -6 -65 -41
-117 -78 -52 -36 -108 -72 -123 -78 -32 -14 -27 -32 9 -32 24 0 24 -1 8 -25
-9 -14 -30 -35 -46 -46 l-29 -21 -86 21 c-48 12 -98 30 -112 40 -14 10 -44 24
-66 31 -45 14 -133 58 -140 70 -5 9 88 147 117 173 11 9 34 17 51 17 27 0 63
6 242 40 302 57 405 70 405 49z m-4440 -24 c0 -1 -9 -5 -19 -8 -13 -3 -18 -1
-14 9 4 10 33 10 33 -1z m70 0 c0 -8 -6 -15 -14 -15 -20 0 -29 17 -14 23 22 9
28 7 28 -8z m4371 -159 c23 -25 9 -72 -40 -129 -60 -72 -102 -148 -103 -187
-1 -39 -36 -50 -84 -27 -25 12 -36 26 -45 58 -12 38 -14 40 -23 20 -9 -22 -56
-31 -56 -10 0 25 247 255 293 272 9 4 23 19 30 34 l12 27 3 -24 c2 -14 8 -29
13 -34z m-2346 -76 c10 -11 16 -22 13 -25 -8 -9 -69 26 -63 36 10 15 31 10 50
-11z m-1995 -40 c0 -16 -23 -60 -31 -60 -14 0 -21 41 -9 55 14 17 40 20 40 5z
m1407 -30 c6 0 30 -27 54 -60 24 -33 52 -63 62 -66 9 -3 25 -20 35 -37 11 -21
25 -32 40 -33 12 0 22 3 22 8 0 4 7 8 15 8 9 0 18 7 21 15 9 22 34 -1 34 -30
0 -21 -34 -45 -65 -45 -7 0 -15 -4 -17 -8 -1 -4 -19 -20 -38 -34 -25 -19 -43
-25 -63 -21 -27 5 -27 6 -7 20 11 8 20 21 20 29 0 19 -98 19 -124 -1 -11 -8
-39 -15 -62 -15 -24 0 -53 -4 -66 -9 -13 -4 -42 -11 -65 -15 -38 -6 -43 -4
-43 14 0 23 23 37 77 46 34 5 42 11 51 38 6 17 24 70 40 118 38 109 42 116 57
95 7 -10 17 -17 22 -17z m3113 9 c0 -6 -4 -7 -10 -4 -5 3 -10 11 -10 16 0 6 5
7 10 4 6 -3 10 -11 10 -16z m-2743 -21 c18 -18 33 -38 33 -45 0 -7 19 -25 42
-40 33 -23 38 -29 23 -32 -11 -2 -24 -10 -30 -18 -8 -11 -19 -12 -63 -3 -47
11 -52 14 -52 38 0 15 -5 44 -11 65 -20 72 5 87 58 35z m-2891 -10 c7 -12 33
-211 34 -261 0 -36 -16 -27 -25 13 -4 17 -20 45 -36 63 -16 17 -29 36 -30 42
-3 41 -8 54 -27 73 -26 26 -27 39 -5 64 18 20 78 25 89 6z m1082 -46 c8 -23
-19 -32 -50 -16 -15 8 -28 19 -28 25 0 15 71 7 78 -9z m5520 6 c7 -7 12 -16
12 -20 0 -10 -48 -9 -75 1 -19 8 -19 8 0 19 26 15 48 15 63 0z m-3468 -18 c0
-6 16 -18 35 -27 46 -22 50 -38 15 -63 -25 -18 -29 -26 -24 -48 l7 -27 -22 27
c-11 14 -21 29 -21 32 0 9 -51 56 -61 56 -23 0 -1 25 24 28 15 2 27 10 27 18
0 8 5 14 10 14 6 0 10 -5 10 -10z m2583 -14 c6 -16 -2 -28 -14 -20 -12 7 -11
34 0 34 5 0 11 -6 14 -14z m-4412 -19 c-10 -9 -11 -8 -5 6 3 10 9 15 12 12 3
-3 0 -11 -7 -18z m1757 -94 c6 -15 12 -33 12 -41 0 -26 -28 6 -32 38 -6 37 3
38 20 3z m702 17 c0 -5 -4 -10 -10 -10 -5 0 -10 5 -10 10 0 6 5 10 10 10 6 0
10 -4 10 -10z m-900 -19 c0 -5 -7 -14 -15 -21 -12 -10 -15 -10 -15 2 0 8 3 18
7 21 9 10 23 9 23 -2z m2235 -43 c26 -13 44 -29 42 -37 -3 -21 -103 -53 -138
-46 -34 8 -34 7 -13 48 34 66 41 68 109 35z m-1855 -69 c0 -4 -12 -14 -26 -24
-30 -19 -48 -10 -20 10 18 13 18 15 -3 48 -31 50 -26 55 14 11 19 -21 35 -41
35 -45z m-123 37 c-2 -6 2 -24 10 -39 22 -44 8 -43 -18 0 -13 21 -27 41 -32
44 -5 4 3 7 17 7 16 0 25 -5 23 -12z m2320 8 c-3 -3 -12 -4 -19 -1 -8 3 -5 6
6 6 11 1 17 -2 13 -5z m-4735 -64 c5 -30 -5 -59 -15 -44 -5 9 -10 52 -8 67 3
19 19 4 23 -23z m4526 -7 c2 -9 -7 -13 -27 -13 -31 0 -42 14 -18 23 19 8 40 3
45 -10z m-5168 -9 c0 -9 -5 -14 -12 -12 -18 6 -21 28 -4 28 9 0 16 -7 16 -16z
m5803 -54 c-3 -11 -9 -20 -14 -20 -10 0 -11 12 -3 34 9 22 23 10 17 -14z m105
-32 c-3 -22 -45 -51 -60 -42 -4 3 -1 18 7 35 19 36 58 41 53 7z m670 -10 c19
-11 32 -28 32 -40 0 -11 -3 -18 -7 -16 -5 2 -32 14 -60 27 -38 17 -53 29 -53
43 0 17 4 19 28 13 15 -3 42 -16 60 -27z m-6058 -92 c0 -3 -4 -8 -10 -11 -5
-3 -10 -1 -10 4 0 6 5 11 10 11 6 0 10 -2 10 -4z m2866 -63 c-7 -53 -42 -98
-68 -88 -18 7 -38 47 -38 76 0 43 18 59 67 59 l46 0 -7 -47z m2448 7 c14 -14
-59 -23 -83 -10 -34 18 -14 33 33 26 22 -4 45 -11 50 -16z m-65 -54 c18 -16
18 -16 61 -16 21 0 30 -5 30 -16 0 -8 -4 -13 -9 -10 -5 4 -17 3 -27 -1 -16 -6
-16 -7 2 -20 10 -7 12 -13 6 -13 -7 0 -12 -7 -12 -15 0 -25 -121 -48 -135 -25
-3 5 3 18 14 29 17 17 18 25 10 53 -5 18 -9 35 -9 38 0 13 55 9 69 -4z m-6403
-242 c5 -38 2 -54 -25 -109 -18 -35 -36 -67 -40 -70 -16 -9 -22 28 -15 85 6
54 51 153 66 144 4 -2 10 -25 14 -50z m6384 19 c0 -15 -19 -37 -26 -31 -3 4
-15 -2 -27 -12 -13 -13 -28 -18 -43 -14 -17 4 -25 -1 -37 -24 -14 -29 -10 -55
9 -51 45 8 64 -23 41 -68 -20 -37 -46 -60 -79 -68 -25 -6 -28 -4 -28 17 0 13
-5 29 -10 34 -8 8 3 43 36 117 l47 107 58 0 c33 0 59 -3 59 -7z m241 -49 c14
-21 38 -79 53 -129 26 -86 31 -93 97 -158 39 -37 88 -79 109 -92 21 -13 41
-29 45 -35 12 -19 -4 -24 -33 -9 -150 76 -242 173 -242 255 0 29 -18 70 -61
138 -48 78 -19 107 32 30z m-5700 -63 c-11 -19 -60 -41 -90 -41 -27 1 47 60
75 60 21 0 23 -3 15 -19z m174 -15 c10 -15 14 -33 9 -51 l-6 -26 -20 20 c-10
12 -23 21 -28 21 -13 0 -32 38 -25 50 12 19 54 10 70 -14z m83 -18 c15 -15 15
-60 -1 -123 l-13 -50 -11 79 c-14 97 -6 125 25 94z m1242 -94 c0 -20 -24 -44
-44 -44 -20 0 -20 5 0 35 18 28 44 33 44 9z m-1251 -136 c13 -37 10 -43 -18
-28 -20 10 -28 40 -14 53 13 13 21 7 32 -25z m4949 -62 c15 -18 20 -53 11 -67
-7 -12 -9 -12 -9 0 0 9 -4 10 -12 5 -7 -5 -24 -9 -38 -9 -22 0 -25 4 -22 30 4
46 8 53 36 53 14 0 30 -6 34 -12z m507 -36 c-3 -5 -13 -10 -21 -10 -8 0 -14 5
-14 10 0 6 9 10 21 10 11 0 17 -4 14 -10z m-42 -47 c4 -20 5 -37 4 -38 -1 -1
-25 -18 -53 -38 -29 -20 -56 -37 -61 -37 -4 0 -30 -18 -57 -40 -39 -33 -56
-40 -90 -40 -24 0 -46 3 -49 6 -6 6 75 74 89 74 3 0 32 22 63 49 59 51 129
101 141 101 4 0 10 -17 13 -37z m-1503 -19 c0 -8 -5 -12 -10 -9 -6 4 -8 11 -5
16 9 14 15 11 15 -7z m-3927 -74 c-3 -11 -7 -20 -9 -20 -2 0 -4 9 -4 20 0 11
4 20 9 20 5 0 7 -9 4 -20z m5487 -141 c0 -17 -29 -9 -40 11 -17 32 0 47 22 21
10 -13 18 -27 18 -32z m-5526 -393 c-3 -9 -10 -16 -15 -16 -11 0 -11 7 -2 39
5 19 8 20 14 8 5 -8 6 -22 3 -31z"/>
<path d="M6640 1540 c0 -5 4 -10 9 -10 6 0 13 5 16 10 3 6 -1 10 -9 10 -9 0
-16 -4 -16 -10z"/>
<path d="M5950 5202 c0 -9 6 -45 13 -79 13 -58 12 -63 -5 -69 -26 -8 -22 -21
10 -31 17 -6 69 -5 147 4 112 13 120 13 133 -4 11 -15 14 -16 22 -3 6 9 5 19
0 24 -16 16 -11 54 8 65 14 8 15 10 2 14 -105 32 -170 61 -183 83 -5 8 -32 13
-77 13 -59 0 -70 -3 -70 -17z m93 -59 c-7 -2 -19 -2 -25 0 -7 3 -2 5 12 5 14
0 19 -2 13 -5z"/>
<path d="M6118 5213 c7 -3 16 -2 19 1 4 3 -2 6 -13 5 -11 0 -14 -3 -6 -6z"/>
<path d="M7200 5180 c0 -5 7 -10 16 -10 8 0 12 5 9 10 -3 6 -10 10 -16 10 -5
0 -9 -4 -9 -10z"/>
<path d="M6237 4986 c-4 -10 -5 -21 -2 -24 9 -9 17 6 13 25 -3 17 -4 17 -11
-1z"/>
<path d="M5885 4982 c-10 -10 -5 -22 9 -22 10 0 19 -19 26 -55 6 -30 15 -55
19 -55 5 0 20 9 35 21 42 33 30 90 -21 104 -37 10 -62 13 -68 7z"/>
<path d="M4328 4822 c-68 -6 -40 -17 42 -17 47 0 80 4 80 10 0 10 -51 13 -122
7z"/>
<path d="M4708 4813 c6 -2 18 -2 25 0 6 3 1 5 -13 5 -14 0 -19 -2 -12 -5z"/>
<path d="M4496 4801 c-19 -7 -19 -8 3 -14 28 -7 91 3 91 14 0 11 -67 11 -94 0z"/>
<path d="M3700 4670 c-11 -7 -6 -10 20 -10 26 0 31 3 20 10 -8 5 -17 10 -20
10 -3 0 -12 -5 -20 -10z"/>
<path d="M3778 4663 c12 -2 32 -2 45 0 12 2 2 4 -23 4 -25 0 -35 -2 -22 -4z"/>
<path d="M5970 4614 c0 -12 7 -15 25 -12 14 3 25 2 25 -2 0 -14 74 -22 194
-21 77 1 124 -3 133 -10 10 -9 19 -9 38 1 13 7 22 16 20 21 -3 4 -53 7 -112 8
-60 0 -110 1 -113 2 -3 1 -33 0 -66 -1 -40 -1 -72 4 -92 14 -39 20 -52 20 -52
0z"/>
<path d="M2545 4480 c3 -5 8 -10 11 -10 2 0 4 5 4 10 0 6 -5 10 -11 10 -5 0
-7 -4 -4 -10z"/>
<path d="M3456 4284 c-9 -23 -8 -24 13 -24 11 0 23 -4 26 -10 11 -17 64 -11
85 10 33 33 24 40 -49 40 -54 0 -70 -4 -75 -16z"/>
<path d="M1843 4175 c0 -22 2 -30 4 -17 2 12 2 30 0 40 -3 9 -5 -1 -4 -23z"/>
<path d="M1795 4110 c3 -5 8 -10 11 -10 2 0 4 5 4 10 0 6 -5 10 -11 10 -5 0
-7 -4 -4 -10z"/>
<path d="M1665 3970 c-3 -5 -1 -10 4 -10 6 0 11 5 11 10 0 6 -2 10 -4 10 -3 0
-8 -4 -11 -10z"/>
<path d="M1830 3718 c-18 -19 -18 -24 -6 -36 22 -22 46 -7 46 28 0 36 -12 38
-40 8z"/>
<path d="M1776 3613 c4 -10 11 -54 15 -98 5 -44 11 -104 15 -132 l7 -53 -33 0
c-21 0 -30 -4 -28 -12 6 -16 32 -22 61 -14 20 5 22 12 24 83 2 86 -12 185 -30
214 -16 26 -42 35 -31 12z"/>
<path d="M1686 3485 c4 -8 10 -15 15 -15 5 0 9 7 9 15 0 8 -7 15 -15 15 -9 0
-12 -6 -9 -15z"/>
<path d="M3652 3200 c-23 -17 -42 -35 -42 -41 0 -6 -14 -9 -32 -7 -31 3 -33 1
-36 -31 -2 -19 1 -44 6 -55 5 -12 17 -39 27 -61 9 -22 30 -59 46 -83 16 -24
29 -51 29 -62 0 -21 -66 -81 -117 -105 -19 -9 -38 -28 -44 -41 -8 -23 -11 -24
-24 -10 -12 12 -22 13 -48 4 -53 -18 -57 -25 -53 -87 2 -31 5 -57 5 -59 1 -1
9 1 19 6 9 5 35 10 57 11 22 1 63 8 90 16 28 8 75 14 106 14 31 -1 66 4 77 10
27 14 115 14 129 0 8 -8 14 -6 21 7 9 18 5 75 -14 187 -5 29 0 52 21 99 20 43
28 79 29 124 1 57 -2 66 -29 94 -26 27 -153 100 -175 100 -4 0 -26 -14 -48
-30z m-52 -80 c0 -5 -5 -10 -11 -10 -5 0 -7 5 -4 10 3 6 8 10 11 10 2 0 4 -4
4 -10z"/>
<path d="M1078 3163 c6 -2 18 -2 25 0 6 3 1 5 -13 5 -14 0 -19 -2 -12 -5z"/>
<path d="M1915 3040 c3 -5 8 -10 11 -10 2 0 4 5 4 10 0 6 -5 10 -11 10 -5 0
-7 -4 -4 -10z"/>
<path d="M2580 3025 c-10 -13 -9 -15 9 -15 11 0 21 4 21 9 0 18 -18 21 -30 6z"/>
<path d="M2330 2944 c0 -14 4 -23 9 -20 5 3 7 15 4 26 -7 28 -13 25 -13 -6z"/>
<path d="M2106 2934 c-3 -9 -3 -22 2 -29 6 -11 13 -10 40 6 17 12 32 25 32 30
0 16 -67 10 -74 -7z"/>
<path d="M2010 2847 c0 -23 37 -63 48 -52 4 3 0 10 -7 14 -7 5 -10 14 -6 20 7
12 -11 41 -26 41 -5 0 -9 -10 -9 -23z"/>
<path d="M2091 2861 c-10 -7 -10 -10 -1 -16 6 -4 16 -3 22 3 13 13 -4 23 -21
13z"/>
<path d="M2420 2840 c0 -11 3 -11 102 -14 38 0 68 3 68 9 0 5 -38 11 -85 12
-54 2 -85 0 -85 -7z"/>
<path d="M2117 2753 c-3 -5 -7 -21 -8 -38 -4 -28 -2 -30 38 -36 55 -7 65 0 57
38 -7 36 -31 35 -40 -3 -5 -18 -9 -20 -18 -11 -7 6 -11 19 -9 28 5 17 -12 35
-20 22z"/>
<path d="M2318 2720 c-3 -16 -1 -30 4 -30 4 0 8 14 8 30 0 17 -2 30 -4 30 -2
0 -6 -13 -8 -30z"/>
<path d="M2025 2610 c-3 -5 -1 -10 4 -10 6 0 11 5 11 10 0 6 -2 10 -4 10 -3 0
-8 -4 -11 -10z"/>
<path d="M2144 2499 c-7 -12 15 -31 28 -23 4 3 8 12 8 20 0 17 -26 19 -36 3z"/>
<path d="M3877 2470 c-3 -8 -8 -28 -12 -43 -7 -33 10 -33 32 -1 11 17 11 23
-1 40 -12 16 -15 16 -19 4z"/>
<path d="M5390 1985 c-10 -13 -6 -22 29 -60 23 -25 47 -57 53 -71 10 -21 17
-24 37 -19 15 3 38 9 53 12 31 6 64 38 49 47 -5 3 -21 2 -36 -4 -43 -16 -51
-13 -113 50 -51 53 -61 59 -72 45z"/>
<path d="M3960 1535 c-10 -12 -7 -17 16 -27 16 -7 45 -25 65 -41 32 -25 39
-27 62 -16 l27 12 -23 13 c-12 7 -38 21 -57 30 -19 10 -39 24 -43 31 -11 17
-32 16 -47 -2z"/>
<path d="M5165 1540 c-7 -11 22 -40 39 -40 7 0 23 -11 36 -25 16 -17 33 -25
49 -23 30 4 51 32 35 48 -16 16 -153 50 -159 40z"/>
<path d="M4770 1415 c-24 -29 11 -46 52 -24 21 11 21 12 3 25 -24 18 -40 18
-55 -1z"/>
<path d="M3962 1259 c-13 -16 -43 -38 -65 -48 -23 -11 -53 -31 -66 -45 -14
-14 -34 -26 -46 -26 -14 0 -32 -15 -52 -44 -18 -26 -41 -46 -54 -48 -35 -5
-35 -27 0 -34 32 -7 65 -40 55 -56 -3 -4 -32 -8 -64 -8 -49 0 -64 -4 -92 -27
-18 -16 -38 -34 -43 -41 -7 -9 -20 -11 -38 -7 -27 7 -47 25 -28 25 6 0 11 6
11 14 0 8 8 17 18 19 9 2 -1 2 -23 -1 -40 -4 -69 -27 -107 -81 -13 -18 -15
-28 -6 -38 6 -7 7 -13 3 -13 -4 0 -2 -6 4 -14 7 -8 11 -20 10 -28 -5 -23 20
-56 61 -79 44 -25 83 -80 74 -104 -4 -8 -3 -32 2 -53 l8 -37 5 35 c5 27 11 36
29 38 29 4 105 -30 151 -69 20 -16 43 -29 52 -29 26 0 64 23 92 55 l26 30 35
-19 c19 -10 37 -25 40 -33 5 -12 17 -9 61 16 31 18 83 52 115 78 47 36 60 52
60 73 0 15 9 35 19 44 18 17 20 17 30 -2 8 -15 6 -23 -9 -37 -24 -22 -26 -39
-3 -31 9 4 20 1 25 -6 5 -9 8 -6 8 10 0 12 5 22 10 22 6 0 10 14 10 31 0 25 3
29 19 24 12 -4 24 1 33 12 7 10 31 32 53 50 99 78 127 110 132 155 l4 43 -63
43 c-35 24 -85 61 -113 83 -27 22 -65 46 -82 54 -18 8 -33 18 -33 24 0 14 -91
71 -114 71 -12 0 -32 9 -46 20 -37 29 -80 25 -108 -11z m-192 -319 c0 -5 -5
-10 -11 -10 -5 0 -7 5 -4 10 3 6 8 10 11 10 2 0 4 -4 4 -10z m-100 -14 c0 -3
-4 -8 -10 -11 -5 -3 -10 -1 -10 4 0 6 5 11 10 11 6 0 10 -2 10 -4z m179 -39
c25 -17 58 -38 73 -46 34 -17 44 -41 19 -41 -11 0 -21 -5 -23 -12 -3 -9 -15
-7 -43 6 -32 15 -35 20 -22 28 27 15 20 28 -28 48 -25 11 -45 26 -45 35 0 23
18 18 69 -18z m-259 -17 c0 -5 -7 -10 -16 -10 -8 0 -12 5 -9 10 3 6 10 10 16
10 5 0 9 -4 9 -10z m169 -19 c-25 -21 -92 -30 -72 -10 12 12 86 39 92 33 2 -2
-7 -12 -20 -23z m-320 -33 c-9 -16 -14 -19 -17 -9 -2 7 2 17 9 22 20 13 21 11
8 -13z m576 -34 c14 -9 25 -25 25 -36 0 -11 4 -16 11 -12 11 7 59 -14 59 -26
0 -4 -11 -5 -23 -3 -14 3 -31 -2 -40 -11 -16 -16 -47 -22 -47 -9 0 3 7 15 17
25 9 10 11 18 6 18 -6 0 -16 -7 -23 -15 -14 -17 -46 -20 -55 -5 -3 6 5 14 19
20 14 5 26 14 26 20 0 12 2 12 -38 1 -39 -12 -45 8 -9 32 29 21 42 21 72 1z
m-258 0 c-3 -3 -12 -4 -19 -1 -8 3 -5 6 6 6 11 1 17 -2 13 -5z m-232 -33 c-3
-6 -11 -11 -17 -11 -6 0 -6 6 2 15 14 17 26 13 15 -4z m464 -99 c-14 -23 -43
-34 -65 -25 -22 8 -17 32 5 26 12 -3 26 3 37 16 22 26 41 12 23 -17z m96 -2
c-18 -20 -45 -27 -45 -12 0 15 24 32 44 32 18 0 19 -1 1 -20z m-55 -30 c0 -5
-7 -10 -15 -10 -8 0 -15 -7 -15 -15 0 -8 -5 -15 -10 -15 -22 0 9 40 38 49 1 1
2 -3 2 -9z"/>
<path d="M3880 821 c0 -6 5 -13 10 -16 6 -3 10 1 10 9 0 9 -4 16 -10 16 -5 0
-10 -4 -10 -9z"/>
<path d="M5320 1225 c0 -8 7 -15 15 -15 8 0 15 4 15 9 0 5 -7 11 -15 15 -9 3
-15 0 -15 -9z"/>
<path d="M3175 1183 c-52 -8 -53 -23 -2 -23 35 0 47 4 47 15 0 8 -3 14 -7 14
-5 -1 -21 -4 -38 -6z"/>
<path d="M2781 566 c-22 -36 -38 -45 -74 -47 -19 0 -18 -2 6 -11 15 -5 27 -14
27 -19 0 -5 9 -9 20 -9 20 0 35 34 32 74 -1 13 2 16 9 9 7 -7 20 -6 40 4 44
22 44 33 0 33 -34 0 -42 -5 -60 -34z"/>
<path d="M3002 592 c-9 -6 -6 -12 12 -20 20 -9 25 -8 30 4 3 9 6 18 6 20 0 7
-34 4 -48 -4z"/>
<path d="M3140 531 c0 -12 5 -21 10 -21 6 0 10 6 10 14 0 8 -4 18 -10 21 -5 3
-10 -3 -10 -14z"/>
<path d="M3160 291 c0 -12 5 -21 10 -21 6 0 10 6 10 14 0 8 -4 18 -10 21 -5 3
-10 -3 -10 -14z"/>
<path d="M2777 286 c-4 -10 -5 -21 -2 -24 9 -9 17 6 13 25 -3 17 -4 17 -11 -1z"/>
<path d="M2723 263 c9 -2 23 -2 30 0 6 3 -1 5 -18 5 -16 0 -22 -2 -12 -5z"/>
<path d="M5110 128 c0 -9 5 -20 10 -23 13 -8 13 5 0 25 -8 13 -10 13 -10 -2z"/>
<path d="M2787 30 c-7 -26 -4 -34 11 -29 4 2 5 15 2 29 l-6 25 -7 -25z"/>
</g>
</svg>
